<svg width="22" height="22" viewBox="0 0 22 22" fill="none" xmlns="http://www.w3.org/2000/svg">
<circle cx="11" cy="11" r="10.5" fill="#D9D9D9" stroke="black"/>
<path d="M10.7381 16.631C10.7381 16.8046 10.8071 16.9711 10.9299 17.0939C11.0527 17.2167 11.2192 17.2857 11.3929 17.2857C11.5665 17.2857 11.7331 17.2167 11.8558 17.0939C11.9786 16.9711 12.0476 16.8046 12.0476 16.631V12.0476H16.631C16.8046 12.0476 16.9711 11.9786 17.0939 11.8558C17.2167 11.7331 17.2857 11.5665 17.2857 11.3929C17.2857 11.2192 17.2167 11.0527 17.0939 10.9299C16.9711 10.8071 16.8046 10.7381 16.631 10.7381H12.0476V6.15476C12.0476 5.98111 11.9786 5.81457 11.8558 5.69178C11.7331 5.56898 11.5665 5.5 11.3929 5.5C11.2192 5.5 11.0527 5.56898 10.9299 5.69178C10.8071 5.81457 10.7381 5.98111 10.7381 6.15476V10.7381H6.15476C5.98111 10.7381 5.81457 10.8071 5.69178 10.9299C5.56898 11.0527 5.5 11.2192 5.5 11.3929C5.5 11.5665 5.56898 11.7331 5.69178 11.8558C5.81457 11.9786 5.98111 12.0476 6.15476 12.0476H10.7381V16.631Z" fill="black"/>
</svg>
