<svg width="17" height="17" viewBox="0 0 17 17" fill="none" xmlns="http://www.w3.org/2000/svg">
<path d="M3.48242 8.4897C3.48242 8.29079 3.56144 8.10003 3.70209 7.95937C3.84274 7.81872 4.03351 7.7397 4.23242 7.7397H7.72542V4.2467C7.72542 4.04779 7.80444 3.85703 7.94509 3.71637C8.08574 3.57572 8.27651 3.4967 8.47542 3.4967C8.67433 3.4967 8.8651 3.57572 9.00575 3.71637C9.1464 3.85703 9.22542 4.04779 9.22542 4.2467V7.7397H12.7184C12.9173 7.7397 13.1081 7.81872 13.2488 7.95937C13.3894 8.10003 13.4684 8.29079 13.4684 8.4897C13.4684 8.68862 13.3894 8.87938 13.2488 9.02003C13.1081 9.16069 12.9173 9.2397 12.7184 9.2397H9.22542V12.7327C9.22542 12.9316 9.1464 13.1224 9.00575 13.263C8.8651 13.4037 8.67433 13.4827 8.47542 13.4827C8.27651 13.4827 8.08574 13.4037 7.94509 13.263C7.80444 13.1224 7.72542 12.9316 7.72542 12.7327V9.2397H4.23242C4.03351 9.2397 3.84274 9.16069 3.70209 9.02003C3.56144 8.87938 3.48242 8.68862 3.48242 8.4897Z" fill="black"/>
<path fill-rule="evenodd" clip-rule="evenodd" d="M3.79226 0.258794C6.90472 -0.0862646 10.0458 -0.0862646 13.1583 0.258794C14.9853 0.462794 16.4603 1.90179 16.6743 3.73879C17.0443 6.89579 17.0443 10.0848 16.6743 13.2418C16.4593 15.0788 14.9843 16.5168 13.1583 16.7218C10.0458 17.0669 6.90472 17.0669 3.79226 16.7218C1.96526 16.5168 0.490257 15.0788 0.276257 13.2418C-0.0920857 10.0848 -0.0920857 6.89575 0.276257 3.73879C0.490257 1.90179 1.96626 0.462794 3.79226 0.258794ZM12.9923 1.74879C9.99012 1.41602 6.9604 1.41602 3.95826 1.74879C3.4025 1.81045 2.88376 2.05767 2.48584 2.45051C2.08791 2.84335 1.83405 3.35887 1.76526 3.91379C1.40959 6.95476 1.40959 10.0268 1.76526 13.0678C1.83426 13.6225 2.08821 14.1378 2.48612 14.5305C2.88402 14.9231 3.40265 15.1702 3.95826 15.2318C6.93526 15.5638 10.0153 15.5638 12.9923 15.2318C13.5477 15.17 14.0661 14.9228 14.4638 14.5302C14.8615 14.1376 15.1153 13.6224 15.1843 13.0678C15.5399 10.0268 15.5399 6.95476 15.1843 3.91379C15.1151 3.35939 14.8612 2.84444 14.4635 2.45202C14.0658 2.05959 13.5475 1.81257 12.9923 1.75079" fill="black"/>
</svg>
