<svg width="42" height="42" viewBox="0 0 42 42" fill="none" xmlns="http://www.w3.org/2000/svg">
<path fill-rule="evenodd" clip-rule="evenodd" d="M28.636 15.2727C28.636 17.298 27.8315 19.2403 26.3994 20.6724C24.9673 22.1045 23.0249 22.9091 20.9996 22.9091C18.9744 22.9091 17.032 22.1045 15.5999 20.6724C14.1678 19.2403 13.3633 17.298 13.3633 15.2727C13.3633 13.2474 14.1678 11.3051 15.5999 9.87299C17.032 8.4409 18.9744 7.63635 20.9996 7.63635C23.0249 7.63635 24.9673 8.4409 26.3994 9.87299C27.8315 11.3051 28.636 13.2474 28.636 15.2727ZM24.8178 15.2727C24.8178 16.2854 24.4156 17.2565 23.6995 17.9726C22.9835 18.6886 22.0123 19.0909 20.9996 19.0909C19.987 19.0909 19.0158 18.6886 18.2998 17.9726C17.5837 17.2565 17.1815 16.2854 17.1815 15.2727C17.1815 14.2601 17.5837 13.2889 18.2998 12.5729C19.0158 11.8568 19.987 11.4545 20.9996 11.4545C22.0123 11.4545 22.9835 11.8568 23.6995 12.5729C24.4156 13.2889 24.8178 14.2601 24.8178 15.2727Z" fill="black"/>
<path fill-rule="evenodd" clip-rule="evenodd" d="M21 0C9.40227 0 0 9.40227 0 21C0 32.5977 9.40227 42 21 42C32.5977 42 42 32.5977 42 21C42 9.40227 32.5977 0 21 0ZM3.81818 21C3.81818 24.99 5.17936 28.6631 7.46073 31.5802C9.0633 29.4766 11.1303 27.7718 13.5004 26.5988C15.8705 25.4259 18.4796 24.8165 21.1241 24.8182C23.7345 24.8151 26.3112 25.4083 28.6576 26.5524C31.004 27.6964 33.0581 29.3612 34.6634 31.4198C36.3175 29.2503 37.4312 26.7181 37.9124 24.0328C38.3936 21.3474 38.2285 18.586 37.4306 15.9772C36.6327 13.3683 35.2251 10.9869 33.3241 9.03007C31.4232 7.07323 29.0836 5.59719 26.4989 4.72406C23.9143 3.85094 21.1588 3.60584 18.4606 4.00904C15.7625 4.41224 13.1991 5.45216 10.9826 7.04274C8.76606 8.63332 6.96018 10.7288 5.71435 13.1559C4.46851 15.583 3.81853 18.2718 3.81818 21ZM21 38.1818C17.0556 38.1882 13.2303 36.8313 10.1716 34.3407C11.4026 32.5779 13.0414 31.1386 14.9483 30.1454C16.8553 29.1522 18.974 28.6345 21.1241 28.6364C23.2473 28.6345 25.3404 29.1393 27.2293 30.1089C29.1183 31.0784 30.7486 32.4847 31.9849 34.2109C28.9026 36.7825 25.0141 38.1881 21 38.1818Z" fill="black"/>
</svg>
